<svg viewBox="0 0 18.62 23.75" xmlns="http://www.w3.org/2000/svg"><g data-name="Camada 2"><g data-name="Camada 1"><path d="M18.12 0H.5a.5.5 0 0 0-.5.5v22.75a.5.5 0 0 0 .5.5h17.62a.5.5 0 0 0 .5-.5V.5a.5.5 0 0 0-.5-.5Zm-.5 22.75H1V1h16.62Z" fill="#1976d2" class="fill-000000"></path><path d="M4.06 7.05h10.5a.5.5 0 0 0 .5-.5V3.68a.5.5 0 0 0-.5-.5H4.06a.5.5 0 0 0-.5.5v2.87a.5.5 0 0 0 .5.5Zm.5-2.87h9.5v1.87h-9.5Z" fill="#1976d2" class="fill-000000"></path><circle cx="4.72" cy="10.65" r=".81" fill="#1976d2" class="fill-000000"></circle><circle cx="7.78" cy="10.65" r=".81" fill="#1976d2" class="fill-000000"></circle><circle cx="10.84" cy="10.65" r=".81" fill="#1976d2" class="fill-000000"></circle><circle cx="13.91" cy="10.65" r=".81" fill="#1976d2" class="fill-000000"></circle><circle cx="4.72" cy="14.45" r=".82" fill="#1976d2" class="fill-000000"></circle><circle cx="7.78" cy="14.45" r=".82" fill="#1976d2" class="fill-000000"></circle><circle cx="10.84" cy="14.45" r=".82" fill="#1976d2" class="fill-000000"></circle><circle cx="13.91" cy="14.45" r=".82" fill="#1976d2" class="fill-000000"></circle><circle cx="4.72" cy="18.25" r=".82" fill="#1976d2" class="fill-000000"></circle><circle cx="7.78" cy="18.25" r=".82" fill="#1976d2" class="fill-000000"></circle><circle cx="10.84" cy="18.25" r=".82" fill="#1976d2" class="fill-000000"></circle><circle cx="13.91" cy="18.25" r=".82" fill="#1976d2" class="fill-000000"></circle></g></g></svg>